<svg xmlns="http://www.w3.org/2000/svg" xmlns:xlink="http://www.w3.org/1999/xlink" viewBox="-24.951 270.721 640 52.814" xml:space="preserve" width="640" height="52.814"><path d="M269.89 304.405v-4.159H286.94v4.159h-17.05zm-284.444 -27.862 -1.663 39.506v0.832c0 3.327 0.832 4.159 6.238 4.574v1.663c-3.743 -0.416 -5.406 -0.416 -7.485 -0.416s-3.743 0 -7.485 0.416v-1.663c5.406 -0.416 6.238 -0.832 6.238 -4.99l1.663 -37.427V278.622c0 -3.327 -1.248 -4.159 -6.238 -4.574v-2.079c2.911 0.416 4.159 0.416 6.238 0.416 2.911 0 4.159 0 7.07 -0.416L4.159 310.227l14.555 -38.674c3.327 0.416 4.99 0.416 7.485 0.416 2.079 0 3.327 0 6.238 -0.416v2.079c-5.406 0.416 -6.238 1.248 -6.238 4.574v0.416l0.832 37.427c0 4.159 0.832 4.574 6.238 4.99v1.663c-4.99 -0.416 -6.654 -0.416 -9.565 -0.416 -2.911 0 -4.574 0 -9.565 0.416v-1.663c5.406 -0.416 6.238 -1.248 6.238 -4.574V316.049l-0.832 -39.506 -12.476 34.1 -0.832 2.495 -1.248 2.911 -0.832 2.911 -0.832 2.495H2.079l-0.832 -2.495L0 316.049l-1.248 -2.911 -0.832 -2.495 -12.476 -34.1zm67.368 44.496c-7.07 0 -9.981 -5.406 -9.981 -17.466h22.872c0 -11.644 -4.99 -17.882 -14.139 -17.882s-14.971 7.485 -14.971 19.129 5.822 18.713 15.802 18.713c7.485 0 12.476 -4.574 13.307 -12.476H62.378c-0.832 6.654 -4.159 9.981 -9.565 9.981zm-9.981 -19.961c0.832 -8.733 3.743 -13.307 8.733 -13.307 4.99 0 7.485 4.159 7.901 13.307h-16.634zm27.446 -12.476v-1.248c4.159 -0.416 7.07 -0.832 9.981 -1.663 0.416 2.911 0.416 4.159 0.832 6.238v0.832c1.663 -4.159 4.99 -7.07 9.149 -7.07 3.743 0 6.654 2.495 6.654 6.238 0 2.079 -1.248 3.743 -3.327 3.743 -1.663 0 -3.327 -1.248 -3.327 -2.495v-2.495c0 -1.248 -0.832 -1.663 -2.495 -1.663 -4.159 0 -6.654 4.99 -6.654 12.476v15.802c0 3.327 0.832 3.743 5.406 4.159v1.663c-4.159 -0.416 -5.822 -0.416 -8.317 -0.416 -2.911 0 -4.159 0 -8.733 0.416v-1.663c4.574 -0.416 5.406 -0.832 5.406 -4.159v-24.951c0 -3.327 -0.416 -3.743 -4.574 -3.743zm55.309 -3.743v12.476h-1.663c-1.248 -6.654 -4.159 -9.981 -8.733 -9.981 -5.822 0 -9.149 6.238 -9.149 17.05 0 10.812 2.911 16.218 8.733 16.218 4.574 0 7.485 -3.327 8.317 -9.981h3.327c-0.832 8.317 -5.406 12.476 -12.06 12.476 -8.733 0 -14.971 -7.485 -14.971 -18.713s6.238 -19.129 14.971 -19.129c3.327 0 5.406 0.832 7.901 3.327l2.079 -3.743h1.248zm22.872 36.179c-7.07 0 -9.981 -5.406 -9.981 -17.466h22.872c0 -11.644 -4.99 -17.882 -14.139 -17.882s-14.971 7.485 -14.971 19.129 5.822 18.713 15.802 18.713c7.485 0 12.476 -4.574 13.307 -12.476H158.025c-0.832 6.654 -4.159 9.981 -9.565 9.981zm-9.981 -19.961c0.832 -8.733 3.743 -13.307 8.733 -13.307 4.99 0 7.485 4.159 7.901 13.307h-16.634zm58.22 14.139V270.721c-3.743 0.832 -7.07 1.663 -11.644 2.079v1.663c4.99 0 5.406 0.416 5.406 4.574v13.307c-2.911 -4.574 -4.99 -5.822 -9.149 -5.822 -8.317 0 -13.723 7.901 -13.723 18.713s5.822 18.713 14.139 18.713c4.159 0 7.485 -2.079 9.565 -6.238 0.416 2.911 0.416 3.327 1.248 6.238 3.327 -0.832 4.574 -1.248 9.149 -1.663h1.248V320.208c-5.822 0 -6.238 -0.416 -6.238 -4.99zm-14.555 6.238c-5.406 0 -8.317 -5.822 -8.317 -16.634 0 -11.228 2.495 -16.634 8.317 -16.634s8.733 5.822 8.733 17.05c-0.416 10.812 -3.327 16.218 -8.733 16.218zm39.09 -0.416c-7.07 0 -9.981 -5.406 -9.981 -17.466h22.872c0 -11.644 -4.99 -17.882 -14.139 -17.882s-14.971 7.485 -14.971 19.129 5.822 18.713 15.802 18.713c7.485 0 12.476 -4.574 13.307 -12.476h-2.911c-1.248 6.654 -4.574 9.981 -9.981 9.981zm-9.981 -19.961c0.832 -8.733 3.743 -13.307 8.733 -13.307 4.99 0 7.485 4.159 7.901 13.307h-16.634zm29.11 22.456v-12.891h1.663c1.248 7.07 4.574 10.396 9.981 10.396 4.574 0 7.901 -2.911 7.901 -7.07 0 -2.495 -1.248 -4.159 -5.406 -6.238l-2.911 -1.248 -3.327 -1.663c-5.406 -2.495 -7.485 -4.574 -7.485 -9.149 0 -6.238 4.574 -9.981 11.644 -9.981 2.911 0 5.406 0.832 7.901 2.495l1.248 -3.327h1.248v12.06h-1.663c-0.832 -6.238 -3.327 -9.149 -7.901 -9.149 -4.159 0 -7.07 2.911 -7.07 6.238 0 2.911 1.248 4.159 7.901 7.07l3.327 1.248c5.822 2.495 7.901 4.99 7.901 9.565 0 6.238 -4.99 10.812 -12.476 10.812 -3.327 0 -6.238 -0.832 -9.149 -3.327l-1.663 3.327h-1.663zm82.755 -39.506c0 -4.159 -1.663 -7.485 -4.574 -9.565 -2.495 -2.079 -5.406 -2.911 -10.396 -2.911h-19.961v2.079c5.406 0.416 6.238 0.832 6.238 4.99v37.011c0 4.159 -0.416 4.574 -6.238 4.99v1.663H307.732c5.822 0 8.733 -0.832 12.06 -2.495 3.743 -2.495 6.238 -7.07 6.238 -12.06 0 -4.159 -1.663 -7.901 -4.574 -9.981 -1.663 -1.248 -3.327 -2.079 -6.238 -2.495 4.99 -1.663 7.901 -5.822 7.901 -11.228zm-22.872 -9.981h6.654c6.238 0 9.149 3.327 9.149 10.396 0 3.327 -0.832 6.238 -2.495 7.901 -1.663 2.079 -3.743 2.495 -7.901 2.495h-5.406v-20.793zm7.485 23.288c4.159 0 6.238 0.832 7.901 2.495 1.663 1.663 2.911 4.99 2.911 8.733 0 7.485 -3.743 12.06 -10.812 12.06h-2.911c-4.159 0 -4.574 -0.416 -4.574 -4.159v-19.129H307.732zm39.922 23.704c-7.07 0 -9.981 -5.406 -9.981 -17.466h22.872c0 -11.644 -4.99 -17.882 -14.139 -17.882s-14.971 7.485 -14.971 19.129 5.822 18.713 15.802 18.713c7.485 0 12.476 -4.574 13.307 -12.476H357.635c-1.248 6.654 -4.574 9.981 -9.981 9.981zm-9.981 -19.961c0.832 -8.733 3.743 -13.307 8.733 -13.307 4.99 0 7.485 4.159 7.901 13.307h-16.634zm27.031 -12.06v-1.248c4.574 -0.416 7.07 -1.248 9.981 -2.495 0.416 1.663 0.416 3.743 0.832 6.654 2.911 -4.159 5.822 -5.822 10.396 -5.822s8.733 2.495 9.981 6.238c0.832 1.663 1.248 4.159 1.248 7.07v18.298c0 3.327 0.832 3.743 5.406 4.159v1.663c-4.159 -0.416 -5.406 -0.416 -8.317 -0.416s-4.159 0 -8.317 0.416v-1.663c4.159 0 4.99 -0.832 4.99 -4.159v-18.713c0 -6.654 -2.079 -9.149 -7.07 -9.149 -5.406 0 -7.901 3.327 -7.901 9.565v18.713c0 2.911 0.832 3.743 4.99 4.159v1.663c-4.159 -0.416 -5.406 -0.416 -8.317 -0.416 -2.495 0 -4.159 0 -8.317 0.416v-1.663c4.574 -0.416 5.406 -0.832 5.406 -4.159v-24.951c0 -3.327 -0.416 -3.743 -4.159 -3.743 -0.416 -0.416 -0.416 -0.416 -0.832 -0.416zm40.754 33.684 20.793 -34.1h-9.565c-4.99 0 -6.238 1.248 -9.149 7.901h-1.663l1.663 -9.981h26.199l-20.793 34.1h9.149c5.406 0 7.485 -2.079 9.565 -9.149h1.663l-2.079 10.812h-25.783zm73.606 -50.734c4.99 0 7.901 0.832 10.396 2.911 2.911 2.495 4.574 5.822 4.574 9.565 0 5.406 -2.911 9.149 -8.317 11.228 7.07 1.248 10.812 5.822 10.812 12.476 0 4.99 -2.495 9.565 -6.238 12.06 -2.911 2.079 -6.238 2.495 -12.06 2.495h-19.129v-1.663c5.822 -0.416 6.238 -0.832 6.238 -4.99v-37.427c0 -4.159 -0.832 -4.574 -6.238 -4.99v-1.663h19.961zm-2.495 22.872c4.159 0 6.238 -0.416 7.901 -2.495 1.663 -1.663 2.495 -4.574 2.495 -7.901 0 -7.07 -2.911 -10.396 -9.149 -10.396h-6.654v20.793h5.406zm-4.99 21.624c0 3.327 0.832 3.743 4.574 3.743h2.911c6.654 0 10.812 -4.159 10.812 -12.06 0 -3.743 -0.832 -6.654 -2.911 -8.733 -1.663 -1.663 -4.159 -2.495 -7.901 -2.495h-7.07v19.545zm61.131 6.238c-1.663 0.416 -2.911 0.416 -4.159 0.416 -3.743 0 -5.406 -2.079 -5.822 -6.654 -2.911 4.99 -5.406 6.654 -10.396 6.654 -6.238 0 -10.812 -4.159 -10.812 -9.981 0 -4.574 2.911 -7.901 8.733 -10.396 3.327 -1.248 6.654 -2.495 11.228 -2.911V295.257c0 -2.911 -0.416 -4.159 -1.248 -5.406 -1.248 -1.248 -2.911 -2.079 -4.99 -2.079 -3.743 0 -6.238 1.663 -6.238 4.574v1.663c0 2.079 -1.248 3.327 -3.327 3.327 -1.663 0 -2.495 -0.832 -2.495 -2.495 0 -4.99 5.822 -9.149 12.476 -9.149 4.159 0 8.317 1.663 9.981 4.574 1.248 1.663 1.663 4.159 1.663 7.901v15.387c0 5.406 0.832 6.654 2.911 6.654 0.416 0 0.832 0 2.079 -0.416v2.911zm-11.228 -20.377c-9.565 1.663 -13.723 4.99 -13.723 10.812 0 4.159 2.495 7.07 6.238 7.07 5.406 0 7.485 -3.327 7.485 -11.228v-6.654zm79.012 -10.396c0.832 -0.832 1.248 -1.663 1.248 -2.079 0 -1.248 -1.248 -1.663 -4.159 -1.663v-1.663c2.911 0.416 4.99 0.416 7.07 0.416 2.495 0 4.159 0 7.485 -0.416v1.663c-3.743 0.416 -4.99 0.832 -7.485 3.743l-7.485 7.901 10.812 17.882c2.079 3.327 3.327 4.159 7.07 4.159v1.663c-2.495 -0.416 -3.743 -0.416 -4.99 -0.416 -1.248 0 -2.495 0 -4.99 0.416l-11.228 -19.961 -5.406 5.406v8.733c0 3.327 0.832 3.743 5.406 4.159v1.663c-4.159 -0.416 -6.238 -0.416 -8.317 -0.416 -2.495 0 -4.574 0 -8.317 0.416v-1.663c4.574 -0.416 5.406 -0.832 5.406 -4.159V278.622c0 -3.743 -0.416 -4.574 -5.406 -4.574v-1.248c3.743 -0.416 7.901 -0.832 11.644 -2.079v34.1l11.644 -12.891zm-64.873 -4.159c4.159 -0.416 7.485 -1.248 9.981 -2.495 0.416 1.248 0.832 3.743 0.832 6.654 2.911 -4.159 5.822 -5.822 10.396 -5.822 4.159 0 7.485 1.663 9.565 4.99 1.248 1.663 1.663 4.574 1.663 7.901v18.298c0 3.327 0.832 3.743 5.406 4.159v1.663c-3.743 -0.416 -5.822 -0.416 -8.317 -0.416 -2.495 0 -4.574 0 -8.317 0.416v-1.663c4.159 0 4.99 -0.832 4.99 -4.159v-18.713c0 -3.327 -0.416 -4.99 -1.248 -6.654 -1.248 -1.663 -3.327 -2.495 -5.406 -2.495 -2.495 0 -4.99 1.248 -6.654 3.327 -1.248 1.248 -1.248 3.327 -1.248 6.238v18.298c0 2.911 0.832 3.743 4.99 4.159v1.663c-3.743 -0.416 -5.822 -0.416 -8.317 -0.416 -2.495 0 -4.574 0 -8.317 0.416v-1.663c4.574 -0.416 5.406 -0.832 5.406 -4.159v-23.704c0 -4.159 -0.416 -4.574 -4.574 -4.574h-0.832v-1.248z" fill="#000"/></svg>